<?xml version="1.0" encoding="utf-8"?>
<!-- Generator: Adobe Illustrator 19.0.0, SVG Export Plug-In . SVG Version: 6.00 Build 0)  -->
<svg version="1.1" id="Layer_1" xmlns="http://www.w3.org/2000/svg" xmlns:xlink="http://www.w3.org/1999/xlink" x="0px" y="0px"
	 width="150px" height="185.3px" viewBox="-17 -0.3 150 185.3" style="enable-background:new -17 -0.3 150 185.3;"
	 xml:space="preserve">
<style type="text/css">
	.st0{fill:#DCDDDE;}
	.st1{fill:#C2E2C7;stroke:#000000;stroke-width:3;stroke-miterlimit:10;}
	.st2{fill:#FFFFFF;stroke:#000000;stroke-width:3;stroke-linecap:round;stroke-miterlimit:10;}
	.st3{fill:none;stroke:#000000;stroke-width:3;stroke-linecap:round;stroke-miterlimit:10;}
	.st4{fill:#9BD2A9;stroke:#000000;stroke-width:3;stroke-miterlimit:10;}
	.st5{fill:#C2E2C8;}
	.st6{fill:#C2E2C8;stroke:#000000;stroke-width:3;stroke-miterlimit:10;}
	.st7{fill:#FFFFFF;stroke:#010101;stroke-width:3;stroke-miterlimit:10;}
	.st8{fill:#010101;}
	.st9{fill:none;stroke:#010101;stroke-width:2.7;stroke-miterlimit:10;}
	.st10{fill:none;stroke:#010101;stroke-width:2.7;stroke-linecap:round;stroke-miterlimit:10;}
	.st11{fill:#C3E3C8;}
</style>
<g id="Isolation_Mode">
	<g id="XMLID_39_">
		<path id="XMLID_28_" class="st0" d="M57,180.8c16.6,0,30,0.9,30,2.1c0,1.2-13.4,2.1-30,2.1s-30-0.9-30-2.1S40.5,180.8,57,180.8z"
			/>
		<g id="XMLID_1222_">
			<path id="XMLID_1227_" class="st1" d="M74.7,182.6H39.5c-2.8,0-5-2.3-5-5v-71.3c0-2.8,2.3-5,5-5h35.2c2.8,0,5,2.3,5,5v71.3
				C79.7,180.3,77.4,182.6,74.7,182.6z"/>
			<rect id="XMLID_1226_" x="34.5" y="116.8" class="st2" width="45.2" height="51.5"/>
			<line id="XMLID_1225_" class="st3" x1="52.4" y1="109.1" x2="61.7" y2="109.1"/>
			<circle id="XMLID_1224_" cx="57.1" cy="175.3" r="2.9"/>
			<g id="XMLID_1251_">
				<path id="XMLID_1250_" class="st2" d="M70,134.3H44.1c-1.4,0-2.6-1.2-2.6-2.6v-3.3c0-1.4,1.2-2.6,2.6-2.6H70
					c1.4,0,2.6,1.2,2.6,2.6v3.3C72.6,133.2,71.4,134.3,70,134.3z"/>
				<path id="XMLID_1252_" class="st4" d="M70,158.9H44.1c-1.4,0-2.6-1.2-2.6-2.6v-11.9c0-1.4,1.2-2.6,2.6-2.6H70
					c1.4,0,2.6,1.2,2.6,2.6v11.9C72.6,157.8,71.4,158.9,70,158.9z"/>
			</g>
		</g>
		<g id="XMLID_401_">
			<path id="XMLID_817_" class="st2" d="M22.7,63l-37.9,22.4c-0.1,0.1-0.3-0.1-0.3-0.2l2.1-8.1c0.1-0.5,0.5-0.9,0.9-1.2L13,60.8
				c0.5-0.3,1-0.4,1.5-0.2l8.1,2.1C22.8,62.7,22.8,63,22.7,63z"/>
			<g id="XMLID_777_">
				<path id="XMLID_86_" class="st5" d="M-3.8,104.3c-0.5,0-0.9-0.3-1.2-0.7l-10.1-17.2c-0.2-0.3-0.2-0.7-0.1-1
					c0.1-0.3,0.3-0.6,0.6-0.8l36.4-21.5c0.2-0.1,0.4-0.2,0.7-0.2c0.5,0,0.9,0.3,1.2,0.7l10.2,17.2c0.2,0.3,0.2,0.7,0.1,1
					c-0.1,0.3-0.3,0.6-0.6,0.8l-9.7,5.7c-0.5,0.3-1.1,0.5-1.7,0.5c-0.4,0-0.7-0.1-0.8-0.2c-1-0.7-3.1-1.8-4.6-2.4
					c-0.1-0.1-0.9-0.3-2-0.3c-1.2,0-2.3,0.3-3.3,0.9c-2.2,1.3-2.9,3.3-3.1,4.4c-0.2,1.7-0.2,4-0.1,5.2c0,0.4-0.5,1.5-1.5,2.1
					l-9.7,5.7C-3.4,104.2-3.6,104.3-3.8,104.3z"/>
				<path id="XMLID_83_" d="M22.3,64.5l10,16.9L22.8,87c-0.3,0.2-0.6,0.3-1,0.3h-0.1c-1.2-0.8-3.2-1.8-4.7-2.5
					c-0.3-0.1-1.2-0.5-2.6-0.5s-2.8,0.4-4.1,1.1c-3.3,1.9-3.7,5.1-3.8,5.5c-0.2,1.7-0.2,4-0.1,5.4c-0.1,0.2-0.4,0.6-0.7,0.8
					l-9.5,5.6l-10-16.9L22.3,64.5 M22.4,61.4c-0.5,0-1,0.1-1.4,0.4l-36.4,21.5c-1.3,0.8-1.8,2.5-1,3.9l10.2,17.2
					c0.5,0.9,1.5,1.4,2.4,1.4c0.5,0,1-0.1,1.4-0.4l9.7-5.7c1.3-0.8,2.3-2.4,2.2-3.5c-0.1-1.1-0.1-3.3,0.1-4.9c0,0,0.2-2,2.3-3.2
					c0.9-0.6,1.8-0.7,2.5-0.7c0.9,0,1.4,0.2,1.4,0.2c1.4,0.6,3.4,1.6,4.3,2.3c0.4,0.3,1,0.4,1.7,0.4c0.8,0,1.7-0.2,2.5-0.7l9.7-5.7
					c1.3-0.8,1.8-2.5,1-3.9L24.8,62.8C24.3,61.9,23.4,61.4,22.4,61.4L22.4,61.4z"/>
			</g>
			<g id="XMLID_750_">
				<g id="XMLID_775_">
					<circle id="XMLID_776_" class="st2" cx="-1.1" cy="87.6" r="4.2"/>
				</g>
				<g id="XMLID_766_">
					<circle id="XMLID_769_" class="st2" cx="17.8" cy="76.4" r="4.2"/>
				</g>
			</g>
		</g>
		<path id="XMLID_61_" class="st6" d="M104.1,99.9L82.5,89c-2.5-1.2-3.5-4.3-2.2-6.7l15.9-31.5c1.2-2.5,4.3-3.5,6.7-2.2l21.6,10.9
			c2.5,1.2,3.5,4.3,2.2,6.7l-15.8,31.5C109.6,100.1,106.6,101.1,104.1,99.9z"/>
		<path id="XMLID_60_" class="st7" d="M108.4,91.4L86.8,80.5c-2.5-1.2-3.5-4.3-2.2-6.7l15.9-31.5c1.2-2.5,4.3-3.5,6.7-2.2L128.8,51
			c2.5,1.2,3.5,4.3,2.2,6.7l-15.9,31.5C113.9,91.6,110.9,92.6,108.4,91.4z"/>
		<g id="XMLID_40_">
			<g id="XMLID_57_">
				<g id="XMLID_58_">
					<circle id="XMLID_59_" class="st8" cx="91.9" cy="75.6" r="1.4"/>
				</g>
			</g>
			<g id="XMLID_54_">
				<g id="XMLID_55_">
					<circle id="XMLID_56_" class="st8" cx="96.3" cy="77.7" r="1.4"/>
				</g>
			</g>
			<g id="XMLID_51_">
				<g id="XMLID_52_">
					<circle id="XMLID_53_" class="st8" cx="100.6" cy="79.9" r="1.4"/>
				</g>
			</g>
			<g id="XMLID_48_">
				<g id="XMLID_49_">
					<circle id="XMLID_50_" class="st8" cx="105" cy="82.1" r="1.4"/>
				</g>
			</g>
			<g id="XMLID_41_">
				<g id="XMLID_42_">
					<circle id="XMLID_47_" class="st8" cx="109.3" cy="84.3" r="1.4"/>
				</g>
			</g>
		</g>
		<path id="XMLID_38_" class="st7" d="M117.3,45.1l1.8-3.6c0.6-1.3-0.1-2.9-1.5-3.6l-2.9-1.5c-1.5-0.7-3.2-0.3-3.8,0.9l-1.8,3.6
			L117.3,45.1z"/>
		<g id="XMLID_30_">
			<path id="XMLID_37_" class="st9" d="M107.1,74.2l-5.8-2.9c-1.5-0.7-2.1-2.6-1.3-4l7.1-14.1c0.7-1.5,2.6-2.1,4-1.3l5.8,2.9
				c1.5,0.7,2.1,2.6,1.3,4l-7.1,14.1C110.4,74.4,108.6,75,107.1,74.2z"/>
			<g id="XMLID_32_">
				<g id="XMLID_34_">
					<line id="XMLID_36_" class="st10" x1="108.6" y1="59.1" x2="112.6" y2="61.1"/>
					<line id="XMLID_35_" class="st10" x1="109.6" y1="62.1" x2="111.6" y2="58.1"/>
				</g>
				<line id="XMLID_33_" class="st10" x1="104.5" y1="67.3" x2="108.5" y2="69.3"/>
			</g>
			<line id="XMLID_31_" class="st10" x1="112.8" y1="51" x2="116.6" y2="52.9"/>
		</g>
		<g id="XMLID_173_">
			<g id="XMLID_229_">
				<path id="XMLID_80_" class="st11" d="M69.9,41.7c-0.4,0-0.8-0.1-1.1-0.2c-0.8-0.3-1.5-0.9-1.8-1.7s-0.4-1.7-0.1-2.5
					C71.5,25,67.5,12.1,58,8.5c-1.5-0.5-3.2-0.8-4.9-0.8c-8.4,0-16.9,7-20.6,16.9c-0.5,1.3-1.7,2.1-3,2.1c-0.4,0-0.8-0.1-1.1-0.2
					c-1.7-0.6-2.5-2.5-1.9-4.2C31.1,9.7,41.8,1.2,53.1,1.2c2.4,0,4.7,0.4,6.8,1.1c0.1,0,0.1,0,0.2,0.1l0.1,0.1l0.2,0.1l0.1,0.1
					c12.6,5,18.1,21.6,12.4,37C72.5,40.9,71.3,41.7,69.9,41.7L69.9,41.7z"/>
				<path id="XMLID_77_" d="M53.1,2.7c2.2,0,4.3,0.3,6.4,1.1h0.1h0.1h0.1c0,0,0.1,0,0.1,0.1C71.8,8.6,77,24.2,71.5,39
					c-0.3,0.7-0.9,1.1-1.6,1.1c-0.2,0-0.4,0-0.6-0.1c-0.9-0.3-1.4-1.3-1-2.2c4.9-13.1,0.5-26.9-9.8-30.8c-1.8-0.6-3.6-1-5.5-1
					c-8.9,0-18,7-22,17.9c-0.3,0.7-0.9,1.1-1.6,1.1c-0.2,0-0.4,0-0.6-0.1c-0.9-0.3-1.4-1.3-1-2.2C32.4,10.6,42.8,2.7,53.1,2.7
					 M53.1-0.3C41.2-0.3,29.9,8.6,25,21.8c-0.4,1.2-0.4,2.5,0.1,3.6s1.5,2,2.7,2.5c0.5,0.2,1.1,0.3,1.7,0.3c2,0,3.8-1.2,4.4-3.1
					c3.5-9.4,11.4-15.9,19.2-15.9c1.5,0,3,0.3,4.5,0.8c8.7,3.3,12.2,15.4,8,26.9c-0.4,1.2-0.4,2.5,0.1,3.6c0.5,1.2,1.5,2,2.7,2.5
					c0.5,0.2,1.1,0.3,1.7,0.3c2,0,3.8-1.2,4.4-3.1c2.9-7.8,3.2-16.1,0.8-23.4c-2.5-7.4-7.4-13-13.9-15.6c-0.1,0-0.2-0.1-0.3-0.1H61
					h-0.1c-0.1,0-0.2-0.1-0.3-0.1C58.1,0.1,55.6-0.3,53.1-0.3L53.1-0.3z"/>
			</g>
			<g id="XMLID_27_">
				<g id="XMLID_174_">
					<path id="XMLID_206_" class="st2" d="M24.8,40.1l-2.3-0.9c-2.5-0.9-3.8-3.7-2.8-6.2l5.1-13.8c0.9-2.5,3.7-3.8,6.2-2.8l2.3,0.9
						c2.5,0.9,3.8,3.7,2.8,6.2L31,37.3C30.1,39.8,27.3,41.1,24.8,40.1z"/>
					<path id="XMLID_209_" d="M18.6,30.4l-0.7-0.3c-0.8-0.3-1.2-1.1-0.9-1.9l2.6-7c0.3-0.8,1.1-1.2,1.9-0.9l0.7,0.3
						c0.8,0.3,1.2,1.1,0.9,1.9l-2.6,7C20.3,30.3,19.4,30.7,18.6,30.4z"/>
				</g>
				<g id="XMLID_63_">
					<path id="XMLID_65_" class="st2" d="M62.6,54.2l2.3,0.9c2.5,0.9,5.3-0.4,6.2-2.8l5.1-13.8c0.9-2.5-0.4-5.3-2.8-6.2L71,31.4
						c-2.5-0.9-5.3,0.4-6.2,2.8L59.7,48C58.8,50.5,60.1,53.3,62.6,54.2z"/>
					<path id="XMLID_64_" d="M73.6,50.8l0.7,0.3c0.8,0.3,1.6-0.1,1.9-0.9l2.6-7c0.3-0.8-0.1-1.6-0.9-1.9L77.2,41
						c-0.8-0.3-1.6,0.1-1.9,0.9l-2.6,7C72.4,49.7,72.8,50.6,73.6,50.8z"/>
				</g>
			</g>
		</g>
		<line id="XMLID_91_" class="st3" x1="43.4" y1="58.5" x2="47.1" y2="49.6"/>
		<line id="XMLID_66_" class="st3" x1="40.5" y1="68.3" x2="51.2" y2="70.4"/>
		<line id="XMLID_67_" class="st3" x1="54.1" y1="86.6" x2="62.7" y2="84.9"/>
		<line id="XMLID_68_" class="st3" x1="90.1" y1="118.5" x2="104.5" y2="115.4"/>
	</g>
</g>
</svg>
